inDegrees=yes
name=ik_S54_A09_T01
DataType=double
version=3
OpenSimVersion=4.3-2021-08-27-4bc7ad9
endheader
time	pelvis_tilt	pelvis_list	pelvis_rotation	pelvis_tx	pelvis_ty	pelvis_tz	hip_flexion_r	hip_adduction_r	hip_rotation_r	knee_angle_r	knee_angle_r_beta	ankle_angle_r	subtalar_angle_r	mtp_angle_r	hip_flexion_l	hip_adduction_l	hip_rotation_l	knee_angle_l	knee_angle_l_beta	ankle_angle_l	subtalar_angle_l	mtp_angle_l	lumbar_extension	lumbar_bending	lumbar_rotation	arm_flex_r	arm_add_r	arm_rot_r	elbow_flex_r	pro_sup_r	wrist_flex_r	wrist_dev_r	arm_flex_l	arm_add_l	arm_rot_l	elbow_flex_l	pro_sup_l	wrist_flex_l	wrist_dev_l
7.41999999999993	-7.632780479214524	-2.778848147301671	22.09895824491604	0	0.9399999999999999	0	41.99869511571882	-10.38631239757085	-10.17904071026	55.90619676693739	0.9757472058508664	0	0	0	41.99869511571882	-10.38631239757085	-10.17904071026	55.90619676693739	0.9757472058508664	0	0	0	-6.382977277856749	-2.6239564904036	3.252254918247385	70.07873666923101	6.695880182224608	1.676404558181146	46.79823980045861	134.415044591121	0	0	58.48813952075223	-21.36000441084557	6.720676051901489	48.51912499840478	120.8258235607893	0	0
7.439999999999929	-7.634644847433989	-2.772445947881689	22.12343119948135	0	0.9399999999999999	0	41.99989504702133	-10.38577570733437	-10.17888097098827	55.90595373656113	0.9757429641706182	0	0	0	41.99989504702133	-10.38577570733437	-10.17888097098827	55.90595373656113	0.9757429641706182	0	0	0	-6.384017744179918	-2.613964102856715	3.233375565681501	70.01898565650202	6.998574856720542	1.34121397754085	46.56876630797035	134.938724083596	0	0	58.4819504674703	-21.35871440828494	6.717983166246364	48.51562671164459	120.8956721224692	0	0
7.459999999999929	-7.636801747970766	-2.753395883031343	22.14873195992281	0	0.9399999999999999	0	42.00090598657895	-10.3853229230593	-10.1787462500804	55.90574938721192	0.9757393976016503	0	0	0	42.00090598657895	-10.3853229230593	-10.1787462500804	55.90574938721192	0.9757393976016503	0	0	0	-6.381510882742653	-2.588681492747509	3.187113983711114	69.91765258002029	7.348212186174064	1.29336441673086	46.41821461228403	135.2770633086475	0	0	58.45211237201111	-21.35813529898672	6.652585789780758	48.4973787378584	120.944305969355	0	0
7.479999999999928	-7.63610124511842	-2.740484875111928	22.14123224831877	0	0.9399999999999999	0	41.99430159695995	-10.38739426385476	-10.17947940814393	55.90714970230361	0.9757638377105656	0	0	0	41.99430159695995	-10.38739426385476	-10.17947940814393	55.90714970230361	0.9757638377105656	0	0	0	-6.372484567995389	-2.583705725483017	3.207104429540446	69.92392998809545	7.328585529927716	1.303343323124908	46.35232157840908	135.4597760884089	0	0	58.44118090017574	-21.3286264569474	6.652996553105958	48.46745558578522	121.0168815318995	0	0
7.499999999999928	-7.625082193254189	-2.712002150854594	22.19877599399826	0	0.9399999999999999	0	41.99554582058159	-10.38683754209657	-10.17931370679791	55.90689762594057	0.9757594381480642	0	0	0	41.99554582058159	-10.38683754209657	-10.17931370679791	55.90689762594057	0.9757594381480642	0	0	0	-6.35317868992885	-2.557643009431219	3.185290097805524	69.78715555439477	7.594058653749025	1.066587867088467	46.22811629218718	136.1805777743452	0	0	58.38062894538053	-21.28677974284064	6.632302216692496	48.50519232031311	121.0937037114779	0	0
7.519999999999928	-7.624256504726215	-2.713448810685514	22.20641760822142	0	0.9399999999999999	0	41.99679370890607	-10.38628094314107	-10.17914784315416	55.90664421010717	0.9757550152073946	0	0	0	41.99679370890607	-10.38628094314107	-10.17914784315416	55.90664421010717	0.9757550152073946	0	0	0	-6.354186602186722	-2.557300742600583	3.177030826205313	69.73171884787583	7.888971759237153	0.656059404684832	46.0029217018889	136.9848475107328	0	0	58.40004388305572	-21.29158597881841	6.648753823898926	48.50975803739117	121.1951139806575	0	0
7.539999999999927	-7.613481073090258	-2.687157077449545	22.26669903912035	0	0.9399999999999999	0	41.99817339646368	-10.3856635537163	-10.17896402880429	55.9063651749693	0.9757501451255101	0	0	0	41.99817339646368	-10.3856635537163	-10.17896402880429	55.9063651749693	0.9757501451255101	0	0	0	-6.336720675296545	-2.530581499012993	3.136447031011959	69.58823486336341	8.334931881395374	0.2956243350339144	45.66305267122107	137.8422484063901	0	0	58.33109237158052	-21.25742708348503	6.602687426250485	48.52113800845316	121.3136075977541	0	0
7.559999999999927	-7.607154466317905	-2.679021867638276	22.30592210767877	0	0.9399999999999999	0	41.99877280529797	-10.38539620057699	-10.17888433338149	55.90624363882999	0.9757480239197189	0	0	0	41.99877280529797	-10.38539620057699	-10.17888433338149	55.90624363882999	0.9757480239197189	0	0	0	-6.328916559872193	-2.52244939674512	3.115992575295342	69.55309601000103	8.468219054345433	0.4547189301525575	45.49558542809758	137.7444636412245	0	0	58.32403127800104	-21.24755675217422	6.616681924383548	48.55126164839152	121.440274473236	0	0
7.579999999999926	-7.600803933915056	-2.669703187175264	22.38989513541754	0	0.9399999999999999	0	41.99932426751481	-10.38514969869861	-10.17881090220713	55.90613209355897	0.9757460770874746	0	0	0	41.99932426751481	-10.38514969869861	-10.17881090220713	55.90613209355897	0.9757460770874746	0	0	0	-6.322538699658398	-2.507281821126035	3.047496554103211	69.58005593512802	8.57142855696288	0.6495949150275899	45.44021945119542	137.6921466301092	0	0	58.70325469938273	-21.67895073109816	6.244309931896773	48.42148975801386	121.4482953418416	0	0
7.599999999999926	-7.576076728091641	-2.665387313273837	22.44100336149291	0	0.9399999999999999	0	41.99996102007138	-10.38486631466523	-10.1787263504282	55.90600282665358	0.9757438209543616	0	0	0	41.99996102007138	-10.38486631466523	-10.1787263504282	55.90600282665358	0.9757438209543616	0	0	0	-6.300183734514841	-2.506634569402573	3.001190389475933	69.62426420711672	8.613318967380307	0.5818261821124406	45.0630097064168	137.3415330820354	0	0	58.75393338928591	-21.90478425282403	6.064051837826843	48.43838961814009	121.6919482032799	0	0
7.619999999999925	-7.572624687348878	-2.653364562952936	22.45790790967847	0	0.9399999999999999	0	42.00119901942396	-10.38431574778686	-10.17856201971147	55.90575148376588	0.9757394341934198	0	0	0	42.00119901942396	-10.38431574778686	-10.17856201971147	55.90575148376588	0.9757394341934198	0	0	0	-6.2923150842186	-2.498448552046746	3.020175384194493	69.69558222973789	8.550993539940421	0.3551931972023987	44.7604163766675	137.2884608472	0	0	58.80194830224507	-21.98056181017488	6.011169495797544	48.76087114210164	122.4355864867028	0	0
7.639999999999925	-7.556540635092952	-2.652726467253713	22.46579478980897	0	0.9399999999999999	0	42.00235151648442	-10.38380264445456	-10.17840890574655	55.90551790705174	0.9757353575107021	0	0	0	42.00235151648442	-10.38380264445456	-10.17840890574655	55.90551790705174	0.9757353575107021	0	0	0	-6.2765571353888	-2.506835106150281	3.047368428722241	69.70243258875924	8.496206883727286	0.02108944155728643	44.45075497680922	137.2481237034102	0	0	58.78936931908115	-22.10269691740089	6.027807361420085	49.02978940326183	122.7374182720262	0	0
7.659999999999925	-7.532968892717727	-2.63753658252315	22.503966238731	0	0.9399999999999999	0	42.00324533656516	-10.38340621216266	-10.17829043811274	55.90533623694924	0.975732186769261	0	0	0	42.00324533656516	-10.38340621216266	-10.17829043811274	55.90533623694924	0.975732186769261	0	0	0	-6.249157860027802	-2.502431728613877	3.055602062980694	69.62229948339892	8.479146571568583	-0.1779161904390757	44.26866859975001	137.1682728570865	0	0	58.75587373524807	-22.19263087225886	6.026280834634044	49.31542759582224	123.0421666415549	0	0
7.679999999999924	-7.524503245894542	-2.6490728733955	22.55259238035127	0	0.9399999999999999	0	42.00394933172858	-10.38309692321817	-10.17819769907069	55.90519198037553	0.975729669017082	0	0	0	42.00394933172858	-10.38309692321817	-10.17819769907069	55.90519198037553	0.975729669017082	0	0	0	-6.246873726597801	-2.513319157154102	3.035595368514162	69.55466694432664	8.469085675407085	-0.2025162325639216	44.18803751939348	136.9172432205681	0	0	58.70290269365766	-22.31961128087943	6.051750862722514	49.67721283830956	123.3091778095361	0	0
7.699999999999924	-7.516568916301108	-2.628177036747509	22.61700715365723	0	0.9399999999999999	0	42.00513221898358	-10.38257337598038	-10.17804109507509	55.90495138304878	0.9757254698015589	0	0	0	42.00513221898358	-10.38257337598038	-10.17804109507509	55.90495138304878	0.9757254698015589	0	0	0	-6.233265779684856	-2.492409065062195	3.006291158386783	69.40698712561712	8.333332233168585	-0.07309597378909947	44.33981982899471	136.631406307022	0	0	58.51057157524532	-22.44970981793253	5.986130469633048	50.17576461478802	123.3530487417133	0	0
7.719999999999923	-7.491933470100265	-2.599396713295454	22.72649862566972	0	0.9399999999999999	0	42.00587896144755	-10.38224188916364	-10.17794202892508	55.90480000004474	0.9757228276697067	0	0	0	42.00587896144755	-10.38224188916364	-10.17794202892508	55.90480000004474	0.9757228276697067	0	0	0	-6.198701421532634	-2.477948225520221	3.031612613433191	69.33296215409376	8.218198085405868	-0.1176605438268714	44.28244398486906	136.3639871566209	0	0	58.29288869738256	-22.5244175524543	5.97881145569291	50.56615186255259	123.2690702160636	0	0
7.739999999999923	-7.486069011818269	-2.590113415606135	22.79664902864564	0	0.9399999999999999	0	42.00674009390579	-10.38185979135293	-10.17782780728406	55.9046254548256	0.9757197812809392	0	0	0	42.00674009390579	-10.38185979135293	-10.17782780728406	55.9046254548256	0.9757197812809392	0	0	0	-6.191563289362614	-2.4666083652047	2.997267085339569	69.1906613181806	8.126406033829577	-0.03291397118568989	44.41598430290201	136.0596386967657	0	0	58.02795040196013	-22.76507771304979	5.804383913863449	51.1427007832182	123.2752523705327	0	0
7.759999999999923	-7.497585592167179	-2.559663734257131	22.85941794167046	0	0.9399999999999999	0	42.00838480022644	-10.38113310879084	-10.17761023292527	55.90429097906439	0.975713943577638	0	0	0	42.00838480022644	-10.38113310879084	-10.17761023292527	55.90429097906439	0.975713943577638	0	0	0	-6.191618185011944	-2.431607581436554	2.988043866803605	68.97738599280858	7.972240865709043	0.08835387040297162	44.69787906202989	135.5368004847264	0	0	58.03012693817132	-22.72275061110491	5.73348958122854	51.3503149180063	123.3875090998929	0	0
7.779999999999922	-7.495833929448874	-2.545523448178983	22.93478440574382	0	0.9399999999999999	0	42.00961013947192	-10.38058839711172	-10.1774474435539	55.90404349567183	0.9757096241775938	0	0	0	42.00961013947192	-10.38058839711172	-10.1774474435539	55.90404349567183	0.9757096241775938	0	0	0	-6.187216838820592	-2.411814324504764	2.936298055819573	68.89504199149481	7.928193034529471	0.1241549273273629	44.72043969554521	135.4048203009	0	0	57.71957360150532	-23.09861049411605	5.414619064892646	52.01090851662082	123.2239553624255	0	0
7.799999999999922	-7.505714710452718	-2.52225447652351	23.09768131978225	0	0.9399999999999999	0	42.01101830332232	-10.37996253653841	-10.17726035612123	55.9037592876421	0.9757046638117143	0	0	0	42.01101830332232	-10.37996253653841	-10.17726035612123	55.9037592876421	0.9757046638117143	0	0	0	-6.191831988162109	-2.372883913303421	2.839697809336065	68.80879079201628	7.829629186586848	0.1520652355329573	44.74953729201236	135.1064704853372	0	0	56.8338102451151	-23.7440684195928	4.610478303057067	53.030738158079	123.1705992355772	0	0
